<?xml version="1.0" encoding="UTF-8"?>
<svg width="28px" height="28px" viewBox="0 0 28 28" version="1.1" xmlns="http://www.w3.org/2000/svg" xmlns:xlink="http://www.w3.org/1999/xlink">
    <!-- Generator: Sketch 50.2 (55047) - http://www.bohemiancoding.com/sketch -->
    <title>image_user</title>
    <desc>Created with Sketch.</desc>
    <defs></defs>
    <g id="3.配置管理_网络参数配置" stroke="none" stroke-width="1" fill="none" fill-rule="evenodd">
        <g id="配置管理_网络参数配置（默认页）(超出1屏)-" transform="translate(-1309.000000, -14.000000)" fill="#2B3756">
            <g id="titlebar" transform="translate(280.000000, 0.000000)">
                <g id="user" transform="translate(1029.000000, 14.000000)">
                    <g id="image/user">
                        <path d="M25.6667208,21.5833027 C25.9001,21.1166469 26.1333424,20.7667148 26.3667216,20.3000931 C26.4834112,20.1834035 26.4834112,20.0667139 26.4834112,19.9500244 C26.5999641,19.6000581 26.8333433,19.2499893 26.9500329,18.9000573 C27.0667567,18.7833677 27.0667567,18.6666781 27.0667567,18.4332989 C27.1833095,18.0833326 27.2999991,17.7334006 27.4166887,17.5000214 C27.4166887,17.3833318 27.5333783,17.1500893 27.5333783,17.0333997 C27.6500679,16.6832967 27.6500679,16.3333647 27.7667575,15.9832959 C27.7667575,15.866743 27.8833104,15.6333638 27.8833104,15.5166742 C28,15.0500184 28,14.4667071 28,14.0000854 C28,6.30000769 21.6999923,0 14.0000854,0 C6.30000769,0 0,6.30000769 0,14.0000854 C0,14.4667071 0,15.0500184 0.116689596,15.5166742 C0.116689596,15.6333638 0.116689596,15.866743 0.233379191,15.9832959 C0.233379191,16.3333647 0.349932068,16.6832967 0.349932068,17.0333997 C0.349932068,17.1500893 0.466621663,17.3833318 0.466621663,17.5000214 C0.583311259,17.8499534 0.700000854,18.2000222 0.81672463,18.4332989 C0.81672463,18.5499885 0.933277506,18.6666781 0.933277506,18.9000573 C1.0499671,19.2499893 1.1666567,19.6000581 1.40003589,19.9500244 C1.40003589,20.0667139 1.51672548,20.1834035 1.51672548,20.3000931 C1.74996796,20.7667148 1.98334715,21.1166469 2.21672634,21.5833027 C4.66672933,25.4333074 8.98338987,28 13.8833959,28 C18.7833677,28 23.1000282,25.4333074 25.6667208,21.5833027 C25.5500312,21.5833027 25.5500312,21.5833027 25.6667208,21.5833027 Z M13.8833959,5.64997394 C16.6832967,5.64997394 19.0167468,7.98338987 19.0167468,10.7833249 C19.0167468,13.5833967 16.6832967,15.9167101 13.8833959,15.9167101 C11.0833241,15.9167101 8.75001068,13.5833967 8.75001068,10.7833249 C8.75001068,7.98338987 11.0833241,5.64997394 13.8833959,5.64997394 Z M5.36662764,22.7500961 C6.88335313,19.3666789 10.1500466,17.1500893 13.8833959,17.1500893 C17.616711,17.1500893 20.8834044,19.3666789 22.3999932,22.7500961 C20.1834035,24.8499962 17.1500893,26.250032 13.8833959,26.250032 C10.6166682,26.1333424 7.58335398,24.8499962 5.36662764,22.7500961 Z" id="image_user"></path>
                    </g>
                </g>
            </g>
        </g>
    </g>
</svg>