<?xml version="1.0" encoding="UTF-8"?>
<svg width="10px" height="10px" viewBox="0 0 10 10" version="1.1" xmlns="http://www.w3.org/2000/svg" xmlns:xlink="http://www.w3.org/1999/xlink">
    <!-- Generator: Sketch 51.3 (57544) - http://www.bohemiancoding.com/sketch -->
    <title>alarm_gray</title>
    <desc>Created with Sketch.</desc>
    <defs></defs>
    <g id="导航" stroke="none" stroke-width="1" fill="none" fill-rule="evenodd">
        <g id="导航（默认）" transform="translate(-961.000000, -23.000000)">
            <g id="titlebar" transform="translate(290.000000, 0.000000)">
                <g id="gray-copy" transform="translate(671.000000, 21.000000)">
                    <g id="alarm/gray" transform="translate(0.000000, 2.000000)">
                        <g id="alarm_gray">
                            <path d="M1,0 L9,0 C9.55228475,-1.01453063e-16 10,0.44771525 10,1 L10,4 L0,4 L0,1 C-6.76353751e-17,0.44771525 0.44771525,1.01453063e-16 1,0 Z" id="Rectangle-4" fill="#CCD1DA"></path>
                            <path d="M0,5 L10,5 L10,9 C10,9.55228475 9.55228475,10 9,10 L1,10 C0.44771525,10 6.76353751e-17,9.55228475 0,9 L0,5 Z" id="Rectangle-4-Copy" fill="#CCD1DA"></path>
                            <path d="M7,1 L8,1 C8.55228475,1 9,1.44771525 9,2 L9,3 L7,3 L7,1 Z" id="Rectangle-8" fill="#A1A6B1"></path>
                            <path d="M4,6 L9,6 L9,8 C9,8.55228475 8.55228475,9 8,9 L5,9 C4.44771525,9 4,8.55228475 4,8 L4,6 Z" id="Rectangle" fill="#A1A6B1"></path>
                        </g>
                    </g>
                </g>
            </g>
        </g>
    </g>
</svg>