<?xml version="1.0" encoding="UTF-8"?>
<svg width="117px" height="21px" viewBox="0 0 117 21" version="1.1" xmlns="http://www.w3.org/2000/svg" xmlns:xlink="http://www.w3.org/1999/xlink">
    <!-- Generator: Sketch 51.3 (57544) - http://www.bohemiancoding.com/sketch -->
    <title>ic_sidebar_logo&amp;name</title>
    <desc>Created with Sketch.</desc>
    <defs></defs>
    <g id="导航" stroke="none" stroke-width="1" fill="none" fill-rule="evenodd">
        <g id="导航（默认）" transform="translate(-17.000000, -18.000000)" fill="#FFFFFF" fill-rule="nonzero">
            <g id="sidebar_logo">
                <g id="ic_sidebar_logo&amp;name" transform="translate(17.607143, 18.000000)">
                    <g id="Group">
                        <path d="M10.30225,3.919 C10.1386071,4.412 10.1261786,5.207 11.2375,5.12 C17.3067857,4.643 21.6733571,4.822 27.6349286,5.838 C27.8265357,5.871 28.7959643,6.093 28.86225,5.784 C28.9016071,5.452 28.2884643,4.955 27.9093929,4.645 C25.23,2.563 20.0783571,0.829 14.6698571,0.32 C14.558,0.309 14.1126429,0.285 14.0007857,0.281 C13.4642857,0.262 12.9878571,0.38 12.6232857,0.637 C11.8547857,1.183 10.8480714,2.279 10.30225,3.919 Z" id="Shape"></path>
                        <path d="M8.95892857,8.623 C8.48042857,8.965 7.63425,9.766 6.96,10.915 C6.31475,12.015 4.75289286,15.851 4.71146429,19.4 C4.69075,21.165 6.45042857,20.688 6.86989286,20.574 C12.4513571,19.058 23.0539643,14.34 27.0031429,11.064 C27.00625,11.061 27.0103929,11.058 27.0145357,11.054 C28.42,10 29.3593929,8.964 29.4836786,7.935 C29.5427143,7.453 29.31175,6.987 28.8518929,6.817 C28.44175,6.666 27.5997143,6.583 27.4381429,6.568 C19.6754643,5.859 12.6574643,6.868 10.2349286,7.88 C9.89521429,8.024 9.20128571,8.45 8.95892857,8.623 Z" id="Shape"></path>
                        <path d="M4.69075,10.272 C4.86785714,9.59 5.07085714,8.636 4.57371429,8.272 C4.13975,7.955 2.96628571,7.86 1.89535714,7.979 C0.667,8.115 0.476428571,9.489 0.447428571,9.675 C0.0207142857,12.368 0.109785714,14.907 0.723964286,16.968 C0.899,17.555 1.51732143,19.393 2.87928571,19.924 C3.69128571,20.241 3.88807143,19.568 3.83732143,19.019 C3.51728571,15.594 4.07760714,12.628 4.69075,10.272 Z" id="Shape"></path>
                        <path d="M7.08014286,4.964 C8.00814286,3.896 8.79735714,2.55 10.6253929,1.285 C10.7030714,1.231 10.8221786,1.147 10.8801786,1.099 C11.4394643,0.641 11.1049286,0.187 10.7393214,0.209 C10.3095,0.235 9.86207143,0.303 9.79371429,0.31 C9.72535714,0.318 9.64457143,0.332 9.57517857,0.341 C6.79117857,0.724 4.10557143,2.294 2.49089286,4.873 C2.48985714,4.876 2.03414286,5.439 1.61882143,6.422 C1.41064286,6.914 2.07142857,7.065 2.51989286,6.898 C2.55510714,6.885 2.86064286,6.77 2.89585714,6.755 C3.60739286,6.446 3.94607143,6.367 4.98903571,6.043 C5.81864286,5.786 6.55814286,5.565 7.08014286,4.964 Z" id="Shape"></path>
                    </g>
                    <g id="Group" transform="translate(34.178571, 4.000000)">
                        <path d="M32.0284286,1.412 C32.0284286,1.037 31.7032143,0.743 31.2868571,0.743 C30.8011071,0.743 30.5432143,1.074 30.5401071,1.402 L30.5421786,9.542 L23.6764286,1.106 C23.5614643,0.948 23.38125,0.765 23.0063214,0.754 C22.7836429,0.742 22.591,0.816 22.4553214,0.95 C22.3051429,1.099 22.2347143,1.317 22.25025,1.571 L22.2699286,11.668 C22.2699286,11.848 22.3424286,12.016 22.475,12.142 C22.6137857,12.274 22.8022857,12.347 23.0073571,12.347 L23.0156429,12.347 C23.6018571,12.341 23.7561786,11.893 23.7561786,11.657 L23.7572143,3.647 L30.6498929,12.03 C30.89225,12.358 31.3355357,12.376 31.5188571,12.313 C32.0491429,12.131 32.0708929,11.764 32.0418929,11.224 L32.0284286,1.412 Z" id="Shape"></path>
                        <path d="M81.3170357,0.785 C81.0819286,0.716 80.8478571,0.739 80.6593571,0.847 C80.4853571,0.947 80.3652143,1.112 80.32275,1.308 C79.7997143,3.656 78.8976071,7.605 78.5589286,9.084 L75.9199286,1.373 C75.8629643,1.16 75.6340714,0.758 75.1659286,0.758 C74.6977857,0.758 74.4678571,1.161 74.4150357,1.362 L71.7729286,9.084 C71.43425,7.604 70.5331786,3.655 70.0091071,1.309 C69.9676786,1.113 69.8496071,0.95 69.6766429,0.85 C69.4891786,0.742 69.2540714,0.718 69.0168929,0.785 C68.5943214,0.904 68.4855714,1.268 68.5280357,1.584 L70.8211071,11.669 C70.88325,12.075 71.1608214,12.329 71.5471429,12.331 L71.5523214,12.331 C72.1240357,12.331 72.28975,11.882 72.297,11.863 L75.1659286,3.719 L78.0348571,11.864 C78.0410714,11.883 78.2067857,12.332 78.7795357,12.332 L78.7847143,12.332 C79.1710357,12.33 79.4496429,12.076 79.5086786,11.682 L81.8048571,1.582 C81.8587143,1.325 81.7427143,0.909 81.3170357,0.785 Z" id="Shape"></path>
                        <path d="M4.35828571,2.16 C5.18892857,2.16 9.67978571,2.167 9.67978571,2.167 C10.0961429,2.167 10.4348214,1.841 10.4348214,1.44 C10.4348214,1.046 10.1023571,0.72 9.69117857,0.714 C9.69117857,0.714 6.3075,0.72 5.88182143,0.72 C5.50896429,0.72 5.16925,0.718 4.843,0.716 C4.54264286,0.714 4.25575,0.713 3.96678571,0.713 C2.61103571,0.713 0.605892857,1.774 0.605892857,4.053 C0.605892857,6.597 0.600714286,11.64 0.600714286,11.64 C0.600714286,12.041 0.938357143,12.367 1.35367857,12.367 C1.769,12.367 2.10560714,12.041 2.10560714,11.641 L2.10457143,7.092 C4.85232143,7.093 9.67875,7.097 9.67875,7.097 C10.0940714,7.097 10.4317143,6.771 10.4317143,6.371 C10.4317143,5.97 10.0940714,5.644 9.67978571,5.644 L2.10457143,5.646 L2.10457143,4.413 C2.10457143,3.02 2.92796429,2.2 4.35828571,2.16 Z" id="Shape"></path>
                        <path d="M36.8569286,2.225 C37.6844643,2.225 42.1421786,2.232 42.1784286,2.232 C42.4321786,2.226 42.9117143,2.069 42.9117143,1.519 C42.9117143,0.946 42.4415,0.784 42.1898214,0.779 C41.9806071,0.778 37.0537143,0.74 36.4519643,0.779 C33.1117857,1 33.1045357,4.089 33.1045357,4.112 C33.0040714,6.447 35.9061429,6.957 37.1458929,7.175 C37.3250714,7.206 37.468,7.231 37.5601786,7.255 C37.5974643,7.265 37.6792857,7.28 37.7952857,7.302 C40.7926429,7.874 41.4037143,8.573 41.3881786,9.06 C41.3695357,9.97 40.5937857,10.911 39.1541429,10.95 C38.3628571,10.95 34.2438214,10.943 33.8305714,10.943 C33.41525,10.943 33.0776071,11.269 33.0776071,11.67 C33.0776071,12.064 33.4100714,12.39 33.82125,12.396 C33.9641786,12.396 36.2645,12.404 37.9175,12.404 C38.7274286,12.404 39.382,12.402 39.5518571,12.397 C40.8475357,12.356 42.9034286,11.414 42.9075714,9.064 C42.9427857,7.387 41.50625,6.417 38.1018571,5.821 C38.0272857,5.808 37.932,5.793 37.82325,5.776 C36.859,5.627 34.6166786,5.28 34.61875,4.167 L34.6208214,4.126 C34.6788214,2.989 35.5374286,2.261 36.8569286,2.225 Z" id="Shape"></path>
                        <path d="M61.3774643,2.16 C62.16875,2.16 66.2877857,2.167 66.7010357,2.167 C67.1163571,2.167 67.454,1.841 67.454,1.44 C67.454,1.046 67.1215357,0.72 66.7103571,0.714 L60.9859643,0.713 C59.6302143,0.713 57.6250714,1.774 57.6250714,4.053 L57.6240357,8.751 L57.6198929,8.751 L57.6198929,8.916 C57.6198929,8.937 57.6198929,8.959 57.6209286,8.98 L57.6209286,9.027 L57.6240357,9.027 L57.6240357,9.048 C57.6240357,11.327 59.6291786,12.388 60.9849286,12.388 L66.7124286,12.387 C67.1215357,12.381 67.454,12.055 67.454,11.661 C67.454,11.26 67.1163571,10.935 66.7010357,10.935 C66.7010357,10.935 62.2081071,10.942 61.3826429,10.942 C59.9916786,10.904 59.1693214,10.121 59.1278929,8.798 L59.1268571,7.092 C61.8746071,7.093 66.7010357,7.097 66.7010357,7.097 C67.1163571,7.097 67.454,6.771 67.454,6.371 C67.454,5.97 67.1163571,5.644 66.7020714,5.644 L59.1268571,5.646 L59.1268571,4.413 C59.12375,3.02 59.9471429,2.2 61.3774643,2.16 Z" id="Shape"></path>
                        <path d="M17.7511071,0.715 L14.7744643,0.714 C13.4187143,0.714 11.4135714,1.775 11.4135714,4.054 L11.4115,9.116 C11.4115,10.425 12.5103929,12.361 14.8707857,12.361 L17.8474286,12.362 C19.2031786,12.362 21.2083214,11.301 21.2083214,9.022 L21.2103929,3.96 C21.2103929,2.651 20.1104643,0.715 17.7511071,0.715 Z M19.7117143,4.338 L19.7096429,8.664 C19.7096429,10.056 18.88625,10.877 17.4548929,10.916 L15.2415714,10.915 C13.7998571,10.915 12.9495357,10.12 12.9091429,8.738 L12.9112143,4.413 C12.9112143,3.021 13.7346071,2.2 15.1659643,2.161 L17.3792857,2.163 C18.821,2.162 19.6713214,2.957 19.7117143,4.338 Z" id="Shape"></path>
                        <path d="M53.2916429,0.807 C52.9022143,0.668 52.46825,0.861 52.3253214,1.234 C52.3066786,1.281 49.9763214,7.026 48.8815714,9.702 C47.7940714,7.034 45.46475,1.272 45.4471429,1.227 C45.37775,1.045 45.2389643,0.9 45.0556429,0.819 C44.8733571,0.738 44.66725,0.73 44.4797857,0.798 C44.2912857,0.865 44.1411071,0.999 44.0561786,1.176 C43.9722857,1.352 43.964,1.55 44.0344286,1.732 C44.0344286,1.734 44.0354643,1.736 48.1565714,11.887 C48.1638214,11.907 48.3461071,12.365 48.8681071,12.365 C49.3838929,12.365 49.5868929,11.924 49.59725,11.9 C53.7349286,1.745 53.7359643,1.742 53.737,1.74 C53.8799286,1.364 53.6800357,0.945 53.2916429,0.807 Z" id="Shape"></path>
                        <path d="M55.7628571,0.743 C55.3164643,0.743 55.0047143,1.013 55.0047143,1.4 L55.0047143,11.633 C55.0047143,12.019 55.3216429,12.322 55.7266071,12.322 C56.1761071,12.322 56.5023571,12.032 56.5023571,11.633 L56.5023571,1.4 C56.5033929,1.019 56.1916429,0.743 55.7628571,0.743 Z" id="Shape"></path>
                    </g>
                </g>
            </g>
        </g>
    </g>
</svg>