<?xml version="1.0" encoding="UTF-8"?>
<svg width="16px" height="16px" viewBox="0 0 16 16" version="1.1" xmlns="http://www.w3.org/2000/svg" xmlns:xlink="http://www.w3.org/1999/xlink">
    <!-- Generator: Sketch 52.3 (67297) - http://www.bohemiancoding.com/sketch -->
    <title>ic/btn/plus</title>
    <desc>Created with Sketch.</desc>
    <g id="导航" stroke="none" stroke-width="1" fill="none" fill-rule="evenodd">
        <g id="导航（超出一屏）" transform="translate(-328.000000, -191.000000)" fill="#FFFFFF">
            <g id="topo" transform="translate(302.000000, 169.000000)">
                <g id="btn_plus_normal" transform="translate(12.000000, 11.987578)">
                    <g id="ic/btn/plus" transform="translate(14.000000, 9.981366)">
                        <path d="M9,7 L15,7 C15.5522847,7 16,7.44771525 16,8 C16,8.55228475 15.5522847,9 15,9 L9,9 L9,15 C9,15.5522847 8.55228475,16 8,16 C7.44771525,16 7,15.5522847 7,15 L7,9 L1,9 C0.44771525,9 -7.59310705e-16,8.55228475 -8.2694608e-16,8 C-8.94581455e-16,7.44771525 0.44771525,7 1,7 L7,7 L7,1 C7,0.44771525 7.44771525,1.01453063e-16 8,0 C8.55228475,-1.01453063e-16 9,0.44771525 9,1 L9,7 Z" id="ic_btn_white_plus"></path>
                    </g>
                </g>
            </g>
        </g>
    </g>
</svg>