<?xml version="1.0" encoding="UTF-8"?>
<svg width="10px" height="11px" viewBox="0 0 10 11" version="1.1" xmlns="http://www.w3.org/2000/svg" xmlns:xlink="http://www.w3.org/1999/xlink">
    <!-- Generator: Sketch 51.3 (57544) - http://www.bohemiancoding.com/sketch -->
    <title>ic_sidebar_down</title>
    <desc>Created with Sketch.</desc>
    <defs></defs>
    <g id="导航" stroke="none" stroke-width="1" fill="none" fill-rule="evenodd">
        <g id="导航（默认）" transform="translate(-1011.000000, -193.000000)" fill="#2E3440">
            <g id="topo" transform="translate(302.000000, 169.000000)">
                <g id="Group-5" transform="translate(390.000000, 11.987578)">
                    <g id="inputbar" transform="translate(76.000000, 0.000000)">
                        <g id="ic/sidebar/down" transform="translate(243.000000, 12.981366)">
                            <g id="ic_sidebar_down" transform="translate(0.000000, 2.000000)">
                                <path d="M8.73860062,0.222807548 L4.95863429,4.16588647 L1.26125946,0.30774467 C0.972389069,0.0107492196 0.505383268,0.0107492196 0.216512876,0.30774467 C0.0724374689,0.455998557 0,0.650419225 0,0.844921172 C0,1.0395044 0.0725174219,1.23392507 0.216512876,1.38209767 L4.43622102,5.77725341 C4.72509141,6.07424886 5.19209721,6.07424886 5.4809676,5.77725341 L9.78334721,1.29699799 C10.0722176,1.00000254 10.0722176,0.519802999 9.78334721,0.222807548 C9.49447681,-0.0742691826 9.02739106,-0.0742691826 8.73860062,0.222807548 Z" id="Fill-1"></path>
                            </g>
                        </g>
                    </g>
                </g>
            </g>
        </g>
    </g>
</svg>